<svg width="703" height="355" viewBox="0 0 703 355" fill="none" xmlns="http://www.w3.org/2000/svg">
<path d="M326.094 186.79C326.103 193.933 323.861 200.906 319.67 206.764C315.48 212.622 309.545 217.081 302.669 219.538L233.958 243.933C223.102 247.834 211.49 249.318 199.971 248.277C188.451 247.236 177.317 243.696 167.38 237.917C146.762 225.793 127.448 211.675 109.73 195.777H290.515C293.386 195.777 296.14 194.665 298.17 192.684C300.201 190.704 301.342 188.018 301.342 185.217V185.217C301.337 182.812 300.496 180.479 298.954 178.602C297.412 176.725 295.262 175.414 292.857 174.885L82.0375 129.319C70.4426 126.849 59.5816 121.821 50.2877 114.622C40.9939 107.423 33.5141 98.2432 28.4217 87.7873C14.9553 59.9106 5.39552 30.3938 0 0.0305176L307.12 155.872C312.869 158.853 317.674 163.308 321.018 168.757C324.361 174.205 326.116 180.44 326.094 186.79V186.79Z" fill="#27272A"/>
<path d="M350.951 117.429C378.392 117.429 400.637 95.7326 400.637 68.9685C400.637 42.2044 378.392 20.5078 350.951 20.5078C323.511 20.5078 301.266 42.2044 301.266 68.9685C301.266 95.7326 323.511 117.429 350.951 117.429Z" fill="#27272A"/>
<path d="M350.951 354.024C378.392 354.024 400.637 332.328 400.637 305.564C400.637 278.8 378.392 257.103 350.951 257.103C323.511 257.103 301.266 278.8 301.266 305.564C301.266 332.328 323.511 354.024 350.951 354.024Z" fill="#27272A"/>
<path d="M400.639 185.212C400.646 188.015 401.792 190.7 403.827 192.68C405.861 194.659 408.618 195.771 411.492 195.771H592.224C574.527 211.683 555.22 225.802 534.6 237.911C524.664 243.69 513.529 247.23 502.01 248.271C490.49 249.312 478.878 247.828 468.023 243.928L399.311 219.533C392.437 217.072 386.504 212.611 382.315 206.754C378.125 200.897 375.881 193.926 375.887 186.785V186.785C375.883 180.407 377.675 174.152 381.067 168.7C384.458 163.248 389.32 158.808 395.121 155.866L702.084 0C696.686 30.3675 687.135 59.8905 673.689 87.7816C668.591 98.2381 661.106 107.418 651.808 114.617C642.509 121.816 631.645 126.843 620.047 129.313L409.227 174.879C406.803 175.388 404.629 176.691 403.067 178.57C401.505 180.449 400.648 182.793 400.639 185.212V185.212Z" fill="#27272A"/>
</svg>
